Coordinates
version=1
nRows=28
nColumns=23
inDegrees=yes

Units are S.I. units (second, meters, Newtons, ...)
If the header above contains a line with 'inDegrees', this indicates whether rotational values are in degrees (yes) or radians (no).

endheader
time	pelvis_tilt	pelvis_list	pelvis_rotation	pelvis_tx	pelvis_ty	pelvis_tz	hip_flexion_r	hip_adduction_r	hip_rotation_r	knee_angle_r	knee_angle_r_beta	ankle_angle_r	subtalar_angle_r	mtp_angle_r	hip_flexion_l	hip_adduction_l	hip_rotation_l	knee_angle_l	knee_angle_l_beta	ankle_angle_l	subtalar_angle_l	mtp_angle_l
      0.00000000	    -11.12974985	     -1.65873420	     -1.03902513	      1.95253534	      0.99773640	      0.98905353	     37.00993084	     -0.27217634	    -13.94050436	     25.47602893	      0.44464059	      0.55084941	      2.63776923	      0.00000000	     -9.01918060	     -0.29904629	     -2.22677078	     24.80597046	      0.43294586	    -16.91279257	    -12.57836992	      0.00000000
      0.00666667	    -10.35120168	     -1.70609791	     -0.93083156	      1.95385820	      0.99643564	      0.98983996	     35.77916597	     -0.34235604	    -15.18115219	     25.40725457	      0.44344025	      0.30166856	      2.65157997	      0.00000000	     -9.20837696	     -0.54879644	     -2.54462137	     27.60485342	      0.48179558	    -16.88963500	    -13.14894981	      0.00000000
      0.01333333	     -9.85222895	     -1.68359753	     -0.80533142	      1.95488388	      0.99444985	      0.99060430	     34.91091073	     -0.47092449	    -16.27941073	     25.49632839	      0.44499488	      0.11899425	      2.35589050	      0.00000000	     -9.02382873	     -0.76146362	     -2.84359104	     30.53904151	      0.53300682	    -16.76088133	    -13.82755878	      0.00000000
      0.02000000	     -9.29729137	     -1.72327260	     -0.70390522	      1.95579916	      0.99227250	      0.99139355	     33.97874469	     -0.51934578	    -17.29300739	     25.72202312	      0.44893399	      0.06002958	      1.98609997	      0.00000000	     -8.87765648	     -1.07531729	     -3.22913689	     33.47912528	      0.58432097	    -16.62075915	    -14.38130804	      0.00000000
      0.02666667	     -8.72311317	     -1.90191945	     -0.58408321	      1.95661067	      0.98986500	      0.99215189	     32.97677958	     -0.42666818	    -18.27227569	     26.05676349	      0.45477632	      0.13852301	      1.52419977	      0.00000000	     -8.67266151	     -1.60738920	     -3.72241235	     36.52200970	      0.63742932	    -16.40874087	    -14.75293104	      0.00000000
      0.03333333	     -8.10693465	     -2.00963792	     -0.58378656	      1.95713767	      0.98722308	      0.99301743	     31.97329506	     -0.30681511	    -18.85663250	     26.65183968	      0.46516235	      0.57976397	      0.86034893	      0.00000000	     -8.48081550	     -2.01879414	     -4.17666110	     39.51370903	      0.68964432	    -16.53364748	    -15.72689584	      0.00000000
      0.04000000	     -7.65064916	     -2.33972758	     -0.45294890	      1.95746112	      0.98407366	      0.99365045	     31.05608047	      0.01460953	    -19.40886995	     27.29990930	      0.47647330	      1.17212337	      0.04614305	      0.00000000	     -7.90110891	     -2.78157438	     -4.65108584	     42.82305326	      0.74740328	    -16.53113146	    -16.56733809	      0.00000000
      0.04666667	     -7.05241243	     -2.65320143	     -0.45552698	      1.95750227	      0.98080470	      0.99440558	     30.03227730	      0.41587458	    -19.60719844	     28.20980385	      0.49235396	      2.28318471	     -0.79151015	      0.00000000	     -7.42591976	     -3.51163768	     -5.18480027	     46.09719874	      0.80454789	    -16.75471295	    -17.75799152	      0.00000000
      0.05333333	     -6.50829855	     -3.04219492	     -0.48082661	      1.95723249	      0.97718663	      0.99513085	     29.07747744	      0.91814559	    -19.66402448	     29.27783267	      0.51099458	      3.65186120	     -1.67379256	      0.00000000	     -6.75352902	     -4.36346370	     -5.73260225	     49.50451479	      0.86401678	    -17.02236162	    -19.09698367	      0.00000000
      0.06000000	     -6.18221370	     -3.35319523	     -0.57259876	      1.95647848	      0.97300197	      0.99592174	     28.44521049	      1.39995924	    -19.41564110	     30.57207894	      0.53358344	      5.18360760	     -2.69846780	      0.00000000	     -5.68677212	     -5.15035192	     -6.24489558	     53.04334982	      0.92578110	    -17.36046547	    -20.62164604	      0.00000000
      0.06666667	     -5.49874073	     -3.83740111	     -0.67469689	      1.95562627	      0.96919409	      0.99657942	     27.41046639	      2.02098154	    -19.27731856	     31.94153545	      0.55748496	      6.99236574	     -3.49225742	      0.00000000	     -4.97805710	     -6.14281760	     -6.77845111	     56.48623848	      0.98587084	    -17.71662049	    -22.16353613	      0.00000000
      0.07333333	     -5.32277093	     -4.19403494	     -0.89356959	      1.95415411	      0.96456169	      0.99737195	     27.07032854	      2.54501402	    -18.88118185	     33.55806464	      0.58569872	      8.82486553	     -4.29751360	      0.00000000	     -3.54280192	     -6.95532087	     -7.15808642	     60.05823315	      1.04821391	    -18.14765926	    -23.97377844	      0.00000000
      0.08000000	     -4.95968797	     -4.64081135	     -1.14123564	      1.95249307	      0.96025668	      0.99808219	     26.52143415	      3.13850916	    -18.51255444	     35.17293344	      0.61388350	     10.62079157	     -4.98860698	      0.00000000	     -2.26538675	     -7.87200513	     -7.52278100	     63.52358040	      1.10869563	    -18.43070792	    -25.52463240	      0.00000000
      0.08666667	     -4.60832637	     -5.14852660	     -1.42254313	      1.95057451	      0.95608920	      0.99878659	     25.98237499	      3.78954803	    -18.10873917	     36.75828575	      0.64155311	     12.31051245	     -5.60289875	      0.00000000	     -0.90103611	     -8.84885933	     -7.80439022	     66.92002634	      1.16797480	    -18.52887240	    -26.78489494	      0.00000000
      0.09333333	     -4.28801043	     -5.74074299	     -1.72805036	      1.94848061	      0.95215807	      0.99946132	     25.43328713	      4.53735643	    -17.65029907	     38.23509148	      0.66732824	     13.85866432	     -6.10885781	      0.00000000	      0.55016264	     -9.89177453	     -7.96112753	     70.18499291	      1.22495921	    -18.40225982	    -27.68236791	      0.00000000
      0.10000000	     -4.06962315	     -6.34403904	     -2.07155439	      1.94614861	      0.94833505	      1.00017309	     24.96950562	      5.31129628	    -17.11323541	     39.63466148	      0.69175534	     15.22234057	     -6.56291813	      0.00000000	      2.18394783	    -10.93499520	     -8.00283208	     73.34763240	      1.28015768	    -18.02446318	    -28.22957622	      0.00000000
      0.10666667	     -3.64989537	     -6.93636462	     -2.34230596	      1.94394796	      0.94528439	      1.00064813	     24.16199645	      6.04111302	    -16.57006396	     40.84102071	      0.71281028	     16.68540443	     -6.98322305	      0.00000000	      3.60671221	    -11.79632357	     -7.74710564	     76.19387881	      1.32983406	    -17.57348772	    -28.60935576	      0.00000000
      0.11333333	     -3.65847775	     -7.52221219	     -2.65078779	      1.94151159	      0.94203137	      1.00125508	     23.76022885	      6.81834527	    -15.94703367	     41.89287485	      0.73116860	     17.84737804	     -7.35896385	      0.00000000	      5.59656839	    -12.67962821	     -7.37158098	     78.95707828	      1.37806098	    -16.87197414	    -28.74168957	      0.00000000
      0.12000000	     -3.72402502	     -7.98709889	     -2.92363595	      1.93906273	      0.93916817	      1.00181981	     23.33822907	      7.48135984	    -15.26566605	     42.79774149	      0.74696150	     18.88988205	     -7.77522728	      0.00000000	      7.68807640	    -13.28946956	     -6.74506941	     81.44902877	      1.42155372	    -16.18784826	    -28.81781829	      0.00000000
      0.12666667	     -3.73113302	     -8.41259095	     -3.10669566	      1.93680288	      0.93694618	      1.00221787	     22.69995108	      8.05946269	    -14.70748054	     43.46671335	      0.75863726	     19.95148015	     -8.08134355	      0.00000000	      9.73259684	    -13.73274636	     -5.91186127	     83.62848554	      1.45959242	    -15.49116229	    -28.84240014	      0.00000000
      0.13333333	     -4.09048926	     -8.67890198	     -3.16086813	      1.93454917	      0.93475754	      1.00253912	     22.35173126	      8.46664202	    -14.20526767	     43.94515198	      0.76698759	     20.82670798	     -8.43013251	      0.00000000	     12.25811358	    -13.95152965	     -4.85589037	     85.58202598	      1.49368813	    -14.77892719	    -28.78295894	      0.00000000
      0.14000000	     -4.16782612	     -8.90960094	     -3.09293130	      1.93257364	      0.93349167	      1.00269369	     21.53854033	      8.76881152	    -13.88245905	     44.17647374	      0.77102492	     21.72564362	     -8.55058323	      0.00000000	     14.43454923	    -14.03635006	     -3.73603317	     87.15638607	      1.52116590	    -14.16293971	    -28.66477178	      0.00000000
      0.14666667	     -4.40204356	     -9.00504750	     -2.88920674	      1.93074263	      0.93261553	      1.00263991	     20.76979614	      8.87628516	    -13.73042418	     44.17349247	      0.77097289	     22.43616943	     -8.53056968	      0.00000000	     16.80301153	    -13.82648731	     -2.44008517	     88.41629882	      1.54315553	    -13.56803319	    -28.45258247	      0.00000000
      0.15333333	     -4.35059709	     -8.85845877	     -2.79306242	      1.92911730	      0.93283286	      1.00274664	     19.55457306	      8.81804451	    -13.31518935	     43.93365437	      0.76678692	     23.07554397	     -8.45366229	      0.00000000	     18.67839733	    -13.36434511	     -1.48669907	     89.19745683	      1.55678931	    -13.08071936	    -28.19264155	      0.00000000
      0.16000000	     -4.67833982	     -8.78448843	     -2.19848870	      1.92768740	      0.93275252	      1.00212877	     18.66593554	      8.51759879	    -13.82949431	     43.55940404	      0.76025502	     23.55792468	     -8.04438782	      0.00000000	     21.14650271	    -12.77025856	      0.00240730	     89.84812320	      1.56814558	    -12.54395280	    -27.69784484	      0.00000000
      0.16666667	     -4.69282120	     -8.37221502	     -2.17887201	      1.92634429	      0.93402839	      1.00239333	     17.31557272	      8.21069661	    -13.37468234	     42.94298890	      0.74949655	     23.89073943	     -7.80448882	      0.00000000	     22.86867146	    -12.07827010	      0.55319761	     89.91236527	      1.56926681	    -12.20903850	    -27.25243141	      0.00000000
      0.17333333	     -4.72990348	     -7.96304954	     -1.63564882	      1.92522976	      0.93559335	      1.00172733	     15.90373160	      7.66505198	    -13.61655607	     42.15378254	      0.73572230	     24.07844460	     -7.44285065	      0.00000000	     24.69545835	    -11.05988457	      1.59110835	     89.74013813	      1.56626088	    -11.67435664	    -26.55604786	      0.00000000
      0.18000000	     -4.51304660	     -7.57056476	     -0.79088613	      1.92486791	      0.93784380	      1.00052823	     14.01614720	      6.80402393	    -14.86623459	     41.16869050	      0.71852920	     24.22452637	     -5.90712618	      0.00000000	     26.12462607	    -10.01521543	      2.63363459	     89.22371566	      1.55724761	    -11.07568957	    -25.70701238	      0.00000000
